# xmcd CD database file
#
# Track frame offsets:
#	150
#	28895
#	58597
#	83499
#	113406
#	133355
#	156888
#	186252
#	217525
#	240940
#	267165
#
# Disc length: 3867 seconds
#
# Revision: 0
# Processed by: cddbd v1.4PL0 Copyright (c) Steve Scherf et al.
# Submitted via: CDex 1.50
#
DISCID=880f190b
DTITLE=Geoff Eales Trio - Facing The Muse
DYEAR=2002
DGENRE=Jazz
TTITLE0=Dream Dancing
TTITLE1=Song from M*A*S*H* (Suicide Is Painless)
TTITLE2=Stokin'
TTITLE3=Blame It On My Youth
TTITLE4=Well You Have To
TTITLE5=Remembering Bill
TTITLE6=Let's Face The Music And Dance
TTITLE7=Days Of Wine And Roses
TTITLE8=My Foolish Heart
TTITLE9=Don't Be Coy
TTITLE10='Round Midnight
EXTD=YEAR: 2002
EXTT0=
EXTT1=
EXTT2=
EXTT3=
EXTT4=
EXTT5=
EXTT6=
EXTT7=
EXTT8=
EXTT9=
EXTT10=
PLAYORDER=
